HIERARCHY
ROOT Hips
{
	OFFSET 0.00000 0.00000 0.00000
	CHANNELS 6 Xposition Yposition Zposition Yrotation Zrotation Xrotation 
	JOINT Lumbar
	{
		OFFSET 0 0 0
		CHANNELS 3 Zrotation Xrotation Yrotation
		JOINT Neck
		{
			OFFSET 0.00 0.2701 0.00
			CHANNELS 3 Zrotation Xrotation Yrotation
			End Site
			{
				OFFSET 0.00 0.1379 0.00
			}
		}
		JOINT RightShoulder
		{
			OFFSET 0.0119 0.2289 0.1181
			CHANNELS 3 Zrotation Xrotation Yrotation
			JOINT RightElbow
			{
				OFFSET 0.00 -0.1475 0.00
				CHANNELS 2 Zrotation Yrotation
				JOINT RightWrist
				{
					OFFSET 0.00 -0.1605 0.00
					CHANNELS 2 Zrotation Xrotation
					End Site
					{
						OFFSET 0.0040 -0.1068 0.0006
					}
				}
			}
		}
		JOINT LeftShoulder
		{
			OFFSET 0.0119 0.2289 -0.1181
			CHANNELS 3 Zrotation Xrotation Yrotation
			JOINT LeftElbow
			{
				OFFSET 0.00 -0.1475 0.00
				CHANNELS 2 Zrotation Yrotation
				JOINT LeftWrist
				{
					OFFSET 0.00 -0.1605 0.00
					CHANNELS 2 Zrotation Xrotation
					End Site
					{
						OFFSET 0.0040 -0.1068 -0.0006
					}
				}
			}
		}
	}
	JOINT RightHip
	{
		OFFSET 0.0316 -0.0424 0.0458
		CHANNELS 3 Zrotation Xrotation Yrotation
		JOINT RightKnee
		{
			OFFSET 0.00 -0.2438 0.00
			CHANNELS 1 Zrotation
			JOINT RightAnkle
			{
				OFFSET 0.00 -0.2449 0.00
				CHANNELS 3 Zrotation Xrotation Yrotation
				End Site
				{
					OFFSET 0.1237 -0.0542 0.0051
				}
			}
		}
	}
	JOINT LeftHip
	{
		OFFSET 0.0316 -0.0424 -0.0458
		CHANNELS 3 Zrotation Xrotation Yrotation
		JOINT LeftKnee
		{
			OFFSET 0.00 -0.2438 0.00
			CHANNELS 1 Zrotation
			JOINT LeftAnkle
			{
				OFFSET 0.00 -0.2449 0.00
				CHANNELS 3 Zrotation Xrotation Yrotation
				End Site
				{
					OFFSET 0.1237 -0.0542 -0.0051
				}
			}
		}
	}
}
MOTION
Frames: 24
Frame Time: 0.02
0.22694 -0.14113 0.06227 184.70167 -40.28462 -0.09135 15.1418 5.69152 -5.47102 10.94438 -34.44444 -2.11994 166.38694 -144.12783 -87.14688 106.24138 68.7055 -75.22933 -21.88677 166.38692 144.23236 87.14685 89.43115 -63.51086 -75.22905 21.88418 106.14606 -8.14024 -9.86342 -70.71174 -6.10919 -2.14452 -3.22934 108.00767 5.24639 2.50107 -73.2876 -5.98976 2.80607 3.5663
0.22706 -0.14107 0.06222 184.92364 -40.19078 0.08467 15.00981 5.63387 -5.481 10.99225 -34.55295 -2.11994 166.38694 -144.01816 -87.14688 106.17603 68.63274 -75.22935 -21.88687 166.38692 144.52058 87.14685 89.43045 -63.5273 -75.22905 21.88418 105.92142 -8.3829 -9.92199 -69.52487 -6.86806 -1.97885 -3.18719 107.88561 5.02926 2.56016 -73.38975 -5.92811 2.83362 3.57687
0.22722 -0.14098 0.06217 185.22734 -40.07424 0.30051 14.84574 5.57563 -5.53848 11.01958 -34.56078 -2.11994 166.38694 -143.91244 -87.14688 106.09017 68.54703 -75.22934 -21.88681 166.38692 144.83712 87.14685 89.39844 -63.53879 -75.22905 21.88418 105.63483 -8.69519 -9.9988 -68.01495 -7.83166 -1.77277 -3.13774 107.73179 4.75679 2.63706 -73.40529 -5.90152 2.85558 3.58668
0.22735 -0.14091 0.06213 185.48618 -39.97165 0.49255 14.70085 5.52004 -5.57283 11.0528 -34.61351 -2.11994 166.38694 -143.80777 -87.14688 106.01966 68.47011 -75.22934 -21.88681 166.38692 145.12956 87.14685 89.38489 -63.55261 -75.22905 21.88419 105.387 -8.96608 -10.06099 -66.7016 -8.67233 -1.59176 -3.09334 107.59704 4.5169 2.7046 -73.45936 -5.86012 2.8794 3.59653
0.2275 -0.14082 0.06207 185.7784 -39.85338 0.70978 14.53559 5.45312 -5.61423 11.09912 -34.66526 -2.11994 166.38694 -143.68888 -87.14688 105.92535 68.38043 -75.22935 -21.88687 166.38692 145.46988 87.14685 89.3543 -63.56604 -75.22905 21.88414 105.09448 -9.27925 -10.1494 -65.17519 -9.64096 -1.38155 -3.04126 107.44159 4.24598 2.77981 -73.51647 -5.81504 2.90569 3.60753
0.22763 -0.14075 0.06204 186.01995 -39.7625 0.88336 14.40528 5.41028 -5.65212 11.11444 -34.69679 -2.11994 166.38694 -143.60159 -87.14688 105.87489 68.31434 -75.22933 -21.88677 166.38692 145.7171 87.14685 89.35102 -63.57912 -75.22906 21.88421 104.87971 -9.52046 -10.18847 -64.01471 -10.39196 -1.22274 -3.00354 107.32204 4.02643 2.84182 -73.54462 -5.78696 2.92566 3.61608
0.22769 -0.14078 0.06207 186.10438 -39.75308 0.92926 14.38184 5.43234 -5.66759 11.04144 -34.69844 -2.11994 166.38694 -143.59833 -87.14687 105.9535 68.31795 -75.22928 -21.88624 166.38692 145.69906 87.14685 89.43596 -63.59258 -75.22911 21.88468 104.90216 -9.54593 -10.07747 -63.97234 -10.47994 -1.21786 -3.00787 107.31033 3.96222 2.86999 -73.54102 -5.78031 2.92936 3.61709
0.22771 -0.14083 0.06212 186.13433 -39.77202 0.92922 14.39428 5.47907 -5.67809 10.93944 -34.68367 -2.11994 166.38693 -143.62746 -87.14686 106.07634 68.34561 -75.2292 -21.88556 166.38693 145.58646 87.14686 89.54842 -63.60582 -75.22917 21.88526 105.00379 -9.49634 -9.91783 -64.30502 -10.3436 -1.26586 -3.02686 107.33569 3.95169 2.88283 -73.50629 -5.79272 2.9269 3.61584
0.22776 -0.14086 0.06216 186.18739 -39.77785 0.94844 14.38891 5.51586 -5.6914 10.85593 -34.67619 -2.11994 166.38692 -143.64349 -87.14686 106.17663 68.36139 -75.22914 -21.88497 166.38693 145.51793 87.14687 89.64491 -63.61907 -75.22922 21.88575 105.0643 -9.48102 -9.78664 -64.44777 -10.31745 -1.28841 -3.03881 107.34382 3.91639 2.89771 -73.469 -5.80663 2.92754 3.6163
0.22779 -0.14091 0.0622 186.25054 -39.7838 0.97604 14.38913 5.5475 -5.70369 10.74941 -34.66574 -2.11994 166.38692 -143.65268 -87.14685 106.286 68.38059 -75.22906 -21.88429 166.38694 145.44589 87.14687 89.7551 -63.63255 -75.22929 21.88638 105.14393 -9.46774 -9.62954 -64.6606 -10.26389 -1.31553 -3.05207 107.35305 3.88023 2.93359 -73.50066 -5.77735 2.92705 3.61392
0.22783 -0.14093 0.06225 186.27833 -39.79653 0.97455 14.38618 5.59544 -5.71675 10.68403 -34.65904 -2.11994 166.38691 -143.68389 -87.14685 106.38796 68.3987 -75.22901 -21.88375 166.38694 145.35817 87.14688 89.84349 -63.64555 -75.22933 21.88676 105.20381 -9.43113 -9.51432 -64.82179 -10.21122 -1.34623 -3.0662 107.36843 3.85999 2.92245 -73.38056 -5.84405 2.92709 3.61682
0.22786 -0.14083 0.06231 186.22418 -39.82142 0.90551 14.37012 5.68471 -5.72906 10.74084 -34.66616 -2.11994 166.38691 -143.76648 -87.14684 106.45224 68.4068 -75.229 -21.88366 166.38694 145.25168 87.14687 89.86714 -63.6573 -75.22929 21.88638 105.18636 -9.35123 -9.52917 -64.74167 -10.21678 -1.37392 -3.07905 107.39901 3.86497 2.7797 -72.86704 -6.15283 2.93392 3.63586
0.22789 -0.14071 0.06237 186.13555 -39.85229 0.80836 14.34917 5.78904 -5.7427 10.83978 -34.67822 -2.11994 166.38691 -143.87011 -87.14684 106.50871 68.41325 -75.229 -21.88371 166.38693 145.13243 87.14687 89.86782 -63.66859 -75.22922 21.88574 105.1473 -9.24968 -9.58733 -64.59957 -10.22971 -1.40357 -3.0923 107.43354 3.88528 2.59104 -72.19995 -6.55993 2.94091 3.66012
0.22793 -0.1406 0.06243 186.06064 -39.88017 0.72275 14.32752 5.88502 -5.75836 10.91869 -34.68895 -2.11994 166.38691 -143.96537 -87.14684 106.57321 68.42129 -75.229 -21.88369 166.38693 145.01777 87.14686 89.87753 -63.68006 -75.22917 21.88525 105.12065 -9.15574 -9.62385 -64.49202 -10.23769 -1.43254 -3.10546 107.46138 3.90274 2.42701 -71.59049 -6.93491 2.9452 3.68134
0.22794 -0.14047 0.0625 185.9918 -39.90981 0.64041 14.3187 5.9885 -5.76338 11.00075 -34.6953 -2.11994 166.38691 -144.05773 -87.14684 106.62084 68.4267 -75.229 -21.88368 166.38692 144.9043 87.14685 89.89346 -63.69158 -75.22911 21.88467 105.0856 -9.0682 -9.66678 -64.3704 -10.24496 -1.46251 -3.11877 107.51021 3.90538 2.24684 -71.02706 -7.26104 2.95992 3.70526
0.228 -0.14039 0.06255 185.90321 -39.93731 0.54565 14.28246 6.07924 -5.79019 11.08608 -34.71205 -2.11994 166.38691 -144.15946 -87.14684 106.70053 68.43678 -75.229 -21.88368 166.38692 144.78734 87.14685 89.8915 -63.70296 -75.22906 21.8842 105.06212 -8.96371 -9.70751 -64.25853 -10.2581 -1.49009 -3.13162 107.51696 3.94093 2.08922 -70.33691 -7.70765 2.95356 3.72487
0.22817 -0.1405 0.06255 185.76522 -39.95293 0.41952 14.16353 6.13421 -5.88333 11.17494 -34.75752 -2.11994 166.38691 -144.29256 -87.14684 106.87604 68.46109 -75.229 -21.88367 166.38692 144.65757 87.14685 89.83782 -63.71363 -75.22905 21.88413 105.07366 -8.81327 -9.7299 -64.18752 -10.28848 -1.51102 -3.14361 107.39627 4.07117 2.00824 -69.28982 -8.50057 2.88447 3.73093
0.22838 -0.14067 0.06254 185.60944 -39.96678 0.2828 14.01845 6.17514 -5.99717 11.26491 -34.81306 -2.11994 166.38691 -144.43229 -87.14684 107.08281 68.48987 -75.229 -21.88367 166.38692 144.52647 87.14685 89.7681 -63.72427 -75.22905 21.88418 105.09753 -8.64774 -9.74915 -64.12692 -10.32508 -1.52912 -3.15497 107.23475 4.23234 1.95101 -68.12893 -9.40438 2.79499 3.73253
0.22856 -0.1408 0.06253 185.46421 -39.98439 0.15379 13.89057 6.2203 -6.09727 11.35132 -34.86344 -2.11994 166.38691 -144.56175 -87.14684 107.27162 68.51588 -75.229 -21.88366 166.38692 144.40047 87.14685 89.71102 -63.7352 -75.22905 21.88417 105.11691 -8.49238 -9.77119 -64.06037 -10.35809 -1.54795 -3.16624 107.09855 4.37413 1.88095 -67.04961 -10.2324 2.71786 3.7364
0.22877 -0.14098 0.06253 185.30725 -39.99021 0.01168 13.74031 6.275 -6.21567 11.45193 -34.91691 -2.11994 166.38691 -144.72232 -87.14684 107.4763 68.54498 -75.229 -21.88365 166.38692 144.25463 87.14685 89.63128 -63.74492 -75.22905 21.88417 105.13122 -8.32216 -9.78895 -63.99668 -10.3945 -1.56923 -3.17909 106.93424 4.53893 1.81795 -65.83908 -11.17042 2.62785 3.73942
0.22894 -0.14107 0.0625 185.17103 -40.01952 -0.10546 13.63027 6.30641 -6.30092 11.52287 -34.9657 -2.11994 166.38691 -144.81975 -87.14684 107.6551 68.56873 -75.229 -21.88365 166.38692 144.15043 87.14685 89.59435 -63.75717 -75.22905 21.88418 105.15885 -8.17972 -9.81431 -63.93073 -10.42519 -1.58473 -3.18853 106.81837 4.66296 1.7464 -64.87658 -11.90521 2.55967 3.74307
0.229 -0.14094 0.06236 185.09601 -40.11899 -0.14928 13.63985 6.27585 -6.28879 11.51002 -35.004 -2.11994 166.38691 -144.73772 -87.14684 107.758 68.57656 -75.22899 -21.88364 166.38692 144.15766 87.14685 89.68744 -63.77625 -75.22905 21.88417 105.22399 -8.11685 -9.86139 -63.85177 -10.43906 -1.58457 -3.18848 106.84924 4.66668 1.64676 -64.63019 -12.04386 2.55797 3.74983
0.22901 -0.14074 0.06219 185.04276 -40.24123 -0.16776 13.69043 6.22248 -6.24269 11.46741 -35.03629 -2.11994 166.38691 -144.59228 -87.14684 107.83339 68.57888 -75.22899 -21.88364 166.38692 144.20751 87.14685 89.82296 -63.79789 -75.22905 21.88417 105.30156 -8.08269 -9.91592 -63.77126 -10.44683 -1.57876 -3.18504 106.92968 4.62831 1.53784 -64.63759 -11.97504 2.57873 3.75732
0.22904 -0.14057 0.06204 184.97997 -40.34986 -0.19888 13.72088 6.18017 -6.21275 11.43923 -35.0681 -2.11994 166.38691 -144.47832 -87.14684 107.91906 68.58378 -75.229 -21.88366 166.38692 144.2406 87.14685 89.93384 -63.81847 -75.22905 21.88417 105.37103 -8.03611 -9.96702 -63.69446 -10.45705 -1.57575 -3.18329 106.98543 4.60912 1.43232 -64.52727 -12.00597 2.58842 3.76428
